<svg width="70" height="70" viewBox="0 0 70 70" fill="none" xmlns="http://www.w3.org/2000/svg">
<path d="M36.225 25.725C35.875 25.375 35.4667 25.2 35 25.2C34.5333 25.2 34.125 25.375 33.775 25.725L23.975 35.525C23.45 36.05 23.3182 36.6765 23.5795 37.4045C23.8408 38.1325 24.381 38.4977 25.2 38.5L44.8 38.5C45.6167 38.5 46.1557 38.1348 46.417 37.4045C46.6783 36.6742 46.5477 36.0477 46.025 35.525L36.225 25.725ZM35 7.62939e-06C39.8417 7.62939e-06 44.3917 0.919342 48.65 2.758C52.9083 4.59667 56.6125 7.08984 59.7625 10.2375C62.9125 13.3875 65.4057 17.0917 67.242 21.35C69.0783 25.6083 69.9977 30.1583 70 35C70 39.8417 69.0807 44.3917 67.242 48.65C65.4033 52.9083 62.9102 56.6125 59.7625 59.7625C56.6125 62.9125 52.9083 65.4057 48.65 67.242C44.3917 69.0783 39.8417 69.9977 35 70C30.1583 70 25.6083 69.0807 21.35 67.242C17.0917 65.4033 13.3875 62.9102 10.2375 59.7625C7.0875 56.6125 4.59317 52.9083 2.75451 48.65C0.91584 44.3917 -0.00232697 39.8417 7.62939e-06 35C7.62939e-06 30.1583 0.919342 25.6083 2.758 21.35C4.59667 17.0917 7.08984 13.3875 10.2375 10.2375C13.3875 7.0875 17.0917 4.59317 21.35 2.75451C25.6083 0.91584 30.1583 -0.00232697 35 7.62939e-06Z" fill="#646464"/>
</svg>
